<svg xmlns="http://www.w3.org/2000/svg" xmlns:xlink="http://www.w3.org/1999/xlink" width="176" zoomAndPan="magnify" viewBox="0 0 132 30.000001" height="40" preserveAspectRatio="xMidYMid meet" version="1.0"><defs><g/><clipPath id="a0f8196494"><path d="M 10 7 L 21 7 L 21 22 L 10 22 Z M 10 7 " clip-rule="nonzero"/></clipPath><clipPath id="6697b6e128"><path d="M 14.15625 6.953125 L 21.5 8.628906 L 18.050781 23.75 L 10.707031 22.074219 Z M 14.15625 6.953125 " clip-rule="nonzero"/></clipPath><clipPath id="8a24320ad2"><path d="M 14.15625 6.953125 L 21.5 8.628906 L 18.050781 23.75 L 10.707031 22.074219 Z M 14.15625 6.953125 " clip-rule="nonzero"/></clipPath><clipPath id="e9655e81ee"><path d="M 10 7 L 18 7 L 18 22 L 10 22 Z M 10 7 " clip-rule="nonzero"/></clipPath><clipPath id="4aef9deb9b"><path d="M 14.15625 6.953125 L 21.5 8.628906 L 18.050781 23.75 L 10.707031 22.074219 Z M 14.15625 6.953125 " clip-rule="nonzero"/></clipPath><clipPath id="0aacfa2a28"><path d="M 14.15625 6.953125 L 21.5 8.628906 L 18.050781 23.75 L 10.707031 22.074219 Z M 14.15625 6.953125 " clip-rule="nonzero"/></clipPath><clipPath id="a8adf6fe27"><path d="M 7 6 L 18 6 L 18 21 L 7 21 Z M 7 6 " clip-rule="nonzero"/></clipPath><clipPath id="43026f22a9"><path d="M 10.875 5.320312 L 18.21875 6.996094 L 14.769531 22.121094 L 7.425781 20.445312 Z M 10.875 5.320312 " clip-rule="nonzero"/></clipPath><clipPath id="7d2f4d0613"><path d="M 10.875 5.320312 L 18.21875 6.996094 L 14.769531 22.121094 L 7.425781 20.445312 Z M 10.875 5.320312 " clip-rule="nonzero"/></clipPath><clipPath id="ae69ff396d"><path d="M 7 6 L 14 6 L 14 21 L 7 21 Z M 7 6 " clip-rule="nonzero"/></clipPath><clipPath id="342a28ed2f"><path d="M 10.875 5.320312 L 18.21875 6.996094 L 14.769531 22.121094 L 7.425781 20.445312 Z M 10.875 5.320312 " clip-rule="nonzero"/></clipPath><clipPath id="d846d2e065"><path d="M 10.875 5.320312 L 18.21875 6.996094 L 14.769531 22.121094 L 7.425781 20.445312 Z M 10.875 5.320312 " clip-rule="nonzero"/></clipPath></defs><g clip-path="url(#a0f8196494)"><g clip-path="url(#6697b6e128)"><g clip-path="url(#8a24320ad2)"><path fill="#fe5f3c" d="M 19.710938 8.382812 L 17.257812 12.097656 L 20.480469 12.332031 L 10.746094 21.90625 L 15.101562 15.113281 L 12.8125 14.894531 L 16.535156 7.65625 Z M 19.710938 8.382812 " fill-opacity="1" fill-rule="nonzero"/></g></g></g><g clip-path="url(#e9655e81ee)"><g clip-path="url(#4aef9deb9b)"><g clip-path="url(#0aacfa2a28)"><path fill="#fe5f3c" d="M 16.535156 7.65625 L 17.105469 7.785156 L 12.8125 14.894531 Z M 10.746094 21.90625 L 15.671875 15.246094 L 15.101562 15.113281 Z M 10.746094 21.90625 " fill-opacity="1" fill-rule="nonzero"/></g></g></g><g clip-path="url(#a8adf6fe27)"><g clip-path="url(#43026f22a9)"><g clip-path="url(#7d2f4d0613)"><path fill="#737373" d="M 16.429688 6.75 L 13.976562 10.46875 L 17.199219 10.703125 L 7.464844 20.273438 L 11.820312 13.484375 L 9.53125 13.261719 L 13.253906 6.027344 Z M 16.429688 6.75 " fill-opacity="1" fill-rule="nonzero"/></g></g></g><g clip-path="url(#ae69ff396d)"><g clip-path="url(#342a28ed2f)"><g clip-path="url(#d846d2e065)"><path fill="#ffffff" d="M 13.253906 6.027344 L 13.824219 6.15625 L 9.53125 13.261719 Z M 7.464844 20.273438 L 12.390625 13.613281 L 11.820312 13.484375 Z M 7.464844 20.273438 " fill-opacity="1" fill-rule="nonzero"/></g></g></g><g fill="#ffffff" fill-opacity="1"><g transform="translate(21.732419, 17.646369)"><g><path d="M 3.09375 0 L 1.15625 0 L 1.15625 -9.234375 L 6.453125 -9.234375 L 6.453125 -7.625 L 3.09375 -7.625 L 3.09375 -5.25 L 6.21875 -5.25 L 6.21875 -3.65625 L 3.09375 -3.65625 Z M 3.09375 0 "/></g></g></g><g fill="#ffffff" fill-opacity="1"><g transform="translate(28.831106, 17.646369)"><g><path d="M 5.5 0 L 5.125 -0.953125 L 5.078125 -0.953125 C 4.753906 -0.546875 4.421875 -0.265625 4.078125 -0.109375 C 3.734375 0.046875 3.285156 0.125 2.734375 0.125 C 2.054688 0.125 1.519531 -0.0664062 1.125 -0.453125 C 0.738281 -0.835938 0.546875 -1.390625 0.546875 -2.109375 C 0.546875 -2.859375 0.804688 -3.410156 1.328125 -3.765625 C 1.847656 -4.117188 2.640625 -4.316406 3.703125 -4.359375 L 4.921875 -4.390625 L 4.921875 -4.703125 C 4.921875 -5.421875 4.554688 -5.78125 3.828125 -5.78125 C 3.265625 -5.78125 2.601562 -5.609375 1.84375 -5.265625 L 1.203125 -6.5625 C 2.015625 -6.988281 2.914062 -7.203125 3.90625 -7.203125 C 4.851562 -7.203125 5.578125 -6.992188 6.078125 -6.578125 C 6.585938 -6.171875 6.84375 -5.546875 6.84375 -4.703125 L 6.84375 0 Z M 4.921875 -3.265625 L 4.1875 -3.25 C 3.625 -3.226562 3.203125 -3.125 2.921875 -2.9375 C 2.648438 -2.757812 2.515625 -2.476562 2.515625 -2.09375 C 2.515625 -1.550781 2.828125 -1.28125 3.453125 -1.28125 C 3.898438 -1.28125 4.253906 -1.40625 4.515625 -1.65625 C 4.785156 -1.914062 4.921875 -2.257812 4.921875 -2.6875 Z M 4.921875 -3.265625 "/></g></g></g><g fill="#ffffff" fill-opacity="1"><g transform="translate(36.64345, 17.646369)"><g><path d="M 5.9375 -2.09375 C 5.9375 -1.375 5.679688 -0.820312 5.171875 -0.4375 C 4.671875 -0.0625 3.921875 0.125 2.921875 0.125 C 2.410156 0.125 1.972656 0.0859375 1.609375 0.015625 C 1.242188 -0.046875 0.90625 -0.144531 0.59375 -0.28125 L 0.59375 -1.875 C 0.945312 -1.707031 1.347656 -1.566406 1.796875 -1.453125 C 2.242188 -1.335938 2.640625 -1.28125 2.984375 -1.28125 C 3.679688 -1.28125 4.03125 -1.484375 4.03125 -1.890625 C 4.03125 -2.035156 3.984375 -2.15625 3.890625 -2.25 C 3.804688 -2.351562 3.648438 -2.460938 3.421875 -2.578125 C 3.191406 -2.703125 2.890625 -2.84375 2.515625 -3 C 1.960938 -3.226562 1.554688 -3.4375 1.296875 -3.625 C 1.046875 -3.820312 0.863281 -4.046875 0.75 -4.296875 C 0.632812 -4.546875 0.578125 -4.851562 0.578125 -5.21875 C 0.578125 -5.851562 0.820312 -6.335938 1.3125 -6.671875 C 1.800781 -7.015625 2.488281 -7.1875 3.375 -7.1875 C 4.226562 -7.1875 5.054688 -7.003906 5.859375 -6.640625 L 5.28125 -5.25 C 4.925781 -5.40625 4.59375 -5.53125 4.28125 -5.625 C 3.976562 -5.71875 3.664062 -5.765625 3.34375 -5.765625 C 2.78125 -5.765625 2.5 -5.613281 2.5 -5.3125 C 2.5 -5.132812 2.585938 -4.984375 2.765625 -4.859375 C 2.953125 -4.734375 3.351562 -4.546875 3.96875 -4.296875 C 4.519531 -4.066406 4.925781 -3.851562 5.1875 -3.65625 C 5.445312 -3.46875 5.632812 -3.25 5.75 -3 C 5.875 -2.75 5.9375 -2.445312 5.9375 -2.09375 Z M 5.9375 -2.09375 "/></g></g></g><g fill="#ffffff" fill-opacity="1"><g transform="translate(43.072687, 17.646369)"><g><path d="M 3.984375 -1.40625 C 4.316406 -1.40625 4.722656 -1.476562 5.203125 -1.625 L 5.203125 -0.203125 C 4.722656 0.015625 4.132812 0.125 3.4375 0.125 C 2.664062 0.125 2.101562 -0.0664062 1.75 -0.453125 C 1.394531 -0.847656 1.21875 -1.4375 1.21875 -2.21875 L 1.21875 -5.609375 L 0.296875 -5.609375 L 0.296875 -6.4375 L 1.359375 -7.078125 L 1.921875 -8.5625 L 3.140625 -8.5625 L 3.140625 -7.0625 L 5.125 -7.0625 L 5.125 -5.609375 L 3.140625 -5.609375 L 3.140625 -2.21875 C 3.140625 -1.9375 3.21875 -1.726562 3.375 -1.59375 C 3.53125 -1.46875 3.734375 -1.40625 3.984375 -1.40625 Z M 3.984375 -1.40625 "/></g></g></g><g fill="#ffffff" fill-opacity="1"><g transform="translate(48.687218, 17.646369)"><g><path d="M 9.546875 -4.625 C 9.546875 -3.101562 9.164062 -1.929688 8.40625 -1.109375 C 7.644531 -0.285156 6.5625 0.125 5.15625 0.125 C 3.738281 0.125 2.648438 -0.285156 1.890625 -1.109375 C 1.128906 -1.929688 0.75 -3.109375 0.75 -4.640625 C 0.75 -6.179688 1.128906 -7.351562 1.890625 -8.15625 C 2.648438 -8.96875 3.738281 -9.375 5.15625 -9.375 C 6.582031 -9.375 7.671875 -8.96875 8.421875 -8.15625 C 9.171875 -7.34375 9.546875 -6.164062 9.546875 -4.625 Z M 2.8125 -4.625 C 2.8125 -3.59375 3.003906 -2.816406 3.390625 -2.296875 C 3.785156 -1.773438 4.375 -1.515625 5.15625 -1.515625 C 6.707031 -1.515625 7.484375 -2.550781 7.484375 -4.625 C 7.484375 -6.707031 6.707031 -7.75 5.15625 -7.75 C 4.382812 -7.75 3.800781 -7.484375 3.40625 -6.953125 C 3.007812 -6.429688 2.8125 -5.65625 2.8125 -4.625 Z M 2.8125 -4.625 "/></g></g></g><g fill="#ffffff" fill-opacity="1"><g transform="translate(58.981576, 17.646369)"><g><path d="M 7.53125 0 L 5.609375 0 L 5.609375 -4.125 C 5.609375 -4.632812 5.515625 -5.015625 5.328125 -5.265625 C 5.148438 -5.523438 4.863281 -5.65625 4.46875 -5.65625 C 3.925781 -5.65625 3.535156 -5.472656 3.296875 -5.109375 C 3.054688 -4.753906 2.9375 -4.160156 2.9375 -3.328125 L 2.9375 0 L 1.015625 0 L 1.015625 -7.0625 L 2.484375 -7.0625 L 2.734375 -6.15625 L 2.84375 -6.15625 C 3.0625 -6.5 3.359375 -6.753906 3.734375 -6.921875 C 4.109375 -7.097656 4.535156 -7.1875 5.015625 -7.1875 C 5.835938 -7.1875 6.460938 -6.960938 6.890625 -6.515625 C 7.316406 -6.078125 7.53125 -5.441406 7.53125 -4.609375 Z M 7.53125 0 "/></g></g></g><g fill="#ffffff" fill-opacity="1"><g transform="translate(67.482316, 17.646369)"><g><path d="M 2.9375 0 L 1.015625 0 L 1.015625 -9.828125 L 2.9375 -9.828125 Z M 2.9375 0 "/></g></g></g><g fill="#ffffff" fill-opacity="1"><g transform="translate(71.42954, 17.646369)"><g><path d="M 0.921875 -8.890625 C 0.921875 -9.515625 1.273438 -9.828125 1.984375 -9.828125 C 2.679688 -9.828125 3.03125 -9.515625 3.03125 -8.890625 C 3.03125 -8.585938 2.941406 -8.351562 2.765625 -8.1875 C 2.585938 -8.019531 2.328125 -7.9375 1.984375 -7.9375 C 1.273438 -7.9375 0.921875 -8.253906 0.921875 -8.890625 Z M 2.9375 0 L 1.015625 0 L 1.015625 -7.0625 L 2.9375 -7.0625 Z M 2.9375 0 "/></g></g></g><g fill="#ffffff" fill-opacity="1"><g transform="translate(75.376763, 17.646369)"><g><path d="M 7.53125 0 L 5.609375 0 L 5.609375 -4.125 C 5.609375 -4.632812 5.515625 -5.015625 5.328125 -5.265625 C 5.148438 -5.523438 4.863281 -5.65625 4.46875 -5.65625 C 3.925781 -5.65625 3.535156 -5.472656 3.296875 -5.109375 C 3.054688 -4.753906 2.9375 -4.160156 2.9375 -3.328125 L 2.9375 0 L 1.015625 0 L 1.015625 -7.0625 L 2.484375 -7.0625 L 2.734375 -6.15625 L 2.84375 -6.15625 C 3.0625 -6.5 3.359375 -6.753906 3.734375 -6.921875 C 4.109375 -7.097656 4.535156 -7.1875 5.015625 -7.1875 C 5.835938 -7.1875 6.460938 -6.960938 6.890625 -6.515625 C 7.316406 -6.078125 7.53125 -5.441406 7.53125 -4.609375 Z M 7.53125 0 "/></g></g></g><g fill="#ffffff" fill-opacity="1"><g transform="translate(83.877503, 17.646369)"><g><path d="M 3.9375 -5.828125 C 3.53125 -5.828125 3.207031 -5.695312 2.96875 -5.4375 C 2.738281 -5.175781 2.609375 -4.804688 2.578125 -4.328125 L 5.28125 -4.328125 C 5.269531 -4.804688 5.144531 -5.175781 4.90625 -5.4375 C 4.664062 -5.695312 4.34375 -5.828125 3.9375 -5.828125 Z M 4.203125 0.125 C 3.066406 0.125 2.175781 -0.1875 1.53125 -0.8125 C 0.894531 -1.4375 0.578125 -2.328125 0.578125 -3.484375 C 0.578125 -4.660156 0.875 -5.570312 1.46875 -6.21875 C 2.0625 -6.863281 2.878906 -7.1875 3.921875 -7.1875 C 4.921875 -7.1875 5.695312 -6.898438 6.25 -6.328125 C 6.8125 -5.765625 7.09375 -4.984375 7.09375 -3.984375 L 7.09375 -3.046875 L 2.53125 -3.046875 C 2.550781 -2.503906 2.710938 -2.078125 3.015625 -1.765625 C 3.316406 -1.460938 3.742188 -1.3125 4.296875 -1.3125 C 4.722656 -1.3125 5.125 -1.351562 5.5 -1.4375 C 5.882812 -1.53125 6.28125 -1.671875 6.6875 -1.859375 L 6.6875 -0.375 C 6.351562 -0.207031 5.992188 -0.0820312 5.609375 0 C 5.222656 0.0820312 4.753906 0.125 4.203125 0.125 Z M 4.203125 0.125 "/></g></g></g><g fill="#ffffff" fill-opacity="1"><g transform="translate(91.519328, 17.646369)"><g><path d="M 4.71875 0 L 2.765625 0 L 2.765625 -7.609375 L 0.265625 -7.609375 L 0.265625 -9.234375 L 7.234375 -9.234375 L 7.234375 -7.609375 L 4.71875 -7.609375 Z M 4.71875 0 "/></g></g></g><g fill="#ffffff" fill-opacity="1"><g transform="translate(99.009579, 17.646369)"><g><path d="M 2.546875 -3.546875 C 2.546875 -2.847656 2.660156 -2.316406 2.890625 -1.953125 C 3.117188 -1.597656 3.492188 -1.421875 4.015625 -1.421875 C 4.523438 -1.421875 4.890625 -1.597656 5.109375 -1.953125 C 5.335938 -2.304688 5.453125 -2.835938 5.453125 -3.546875 C 5.453125 -4.242188 5.335938 -4.765625 5.109375 -5.109375 C 4.890625 -5.460938 4.519531 -5.640625 4 -5.640625 C 3.488281 -5.640625 3.117188 -5.460938 2.890625 -5.109375 C 2.660156 -4.765625 2.546875 -4.242188 2.546875 -3.546875 Z M 7.421875 -3.546875 C 7.421875 -2.390625 7.117188 -1.488281 6.515625 -0.84375 C 5.910156 -0.195312 5.066406 0.125 3.984375 0.125 C 3.304688 0.125 2.707031 -0.0195312 2.1875 -0.3125 C 1.675781 -0.613281 1.28125 -1.039062 1 -1.59375 C 0.71875 -2.15625 0.578125 -2.804688 0.578125 -3.546875 C 0.578125 -4.703125 0.878906 -5.597656 1.484375 -6.234375 C 2.085938 -6.867188 2.9375 -7.1875 4.03125 -7.1875 C 4.707031 -7.1875 5.300781 -7.039062 5.8125 -6.75 C 6.332031 -6.457031 6.726562 -6.035156 7 -5.484375 C 7.28125 -4.929688 7.421875 -4.285156 7.421875 -3.546875 Z M 7.421875 -3.546875 "/></g></g></g><g fill="#ffffff" fill-opacity="1"><g transform="translate(107.017705, 17.646369)"><g><path d="M 2.546875 -3.546875 C 2.546875 -2.847656 2.660156 -2.316406 2.890625 -1.953125 C 3.117188 -1.597656 3.492188 -1.421875 4.015625 -1.421875 C 4.523438 -1.421875 4.890625 -1.597656 5.109375 -1.953125 C 5.335938 -2.304688 5.453125 -2.835938 5.453125 -3.546875 C 5.453125 -4.242188 5.335938 -4.765625 5.109375 -5.109375 C 4.890625 -5.460938 4.519531 -5.640625 4 -5.640625 C 3.488281 -5.640625 3.117188 -5.460938 2.890625 -5.109375 C 2.660156 -4.765625 2.546875 -4.242188 2.546875 -3.546875 Z M 7.421875 -3.546875 C 7.421875 -2.390625 7.117188 -1.488281 6.515625 -0.84375 C 5.910156 -0.195312 5.066406 0.125 3.984375 0.125 C 3.304688 0.125 2.707031 -0.0195312 2.1875 -0.3125 C 1.675781 -0.613281 1.28125 -1.039062 1 -1.59375 C 0.71875 -2.15625 0.578125 -2.804688 0.578125 -3.546875 C 0.578125 -4.703125 0.878906 -5.597656 1.484375 -6.234375 C 2.085938 -6.867188 2.9375 -7.1875 4.03125 -7.1875 C 4.707031 -7.1875 5.300781 -7.039062 5.8125 -6.75 C 6.332031 -6.457031 6.726562 -6.035156 7 -5.484375 C 7.28125 -4.929688 7.421875 -4.285156 7.421875 -3.546875 Z M 7.421875 -3.546875 "/></g></g></g><g fill="#ffffff" fill-opacity="1"><g transform="translate(115.025832, 17.646369)"><g><path d="M 2.9375 0 L 1.015625 0 L 1.015625 -9.828125 L 2.9375 -9.828125 Z M 2.9375 0 "/></g></g></g><g fill="#ffffff" fill-opacity="1"><g transform="translate(118.973056, 17.646369)"><g><path d="M 5.9375 -2.09375 C 5.9375 -1.375 5.679688 -0.820312 5.171875 -0.4375 C 4.671875 -0.0625 3.921875 0.125 2.921875 0.125 C 2.410156 0.125 1.972656 0.0859375 1.609375 0.015625 C 1.242188 -0.046875 0.90625 -0.144531 0.59375 -0.28125 L 0.59375 -1.875 C 0.945312 -1.707031 1.347656 -1.566406 1.796875 -1.453125 C 2.242188 -1.335938 2.640625 -1.28125 2.984375 -1.28125 C 3.679688 -1.28125 4.03125 -1.484375 4.03125 -1.890625 C 4.03125 -2.035156 3.984375 -2.15625 3.890625 -2.25 C 3.804688 -2.351562 3.648438 -2.460938 3.421875 -2.578125 C 3.191406 -2.703125 2.890625 -2.84375 2.515625 -3 C 1.960938 -3.226562 1.554688 -3.4375 1.296875 -3.625 C 1.046875 -3.820312 0.863281 -4.046875 0.75 -4.296875 C 0.632812 -4.546875 0.578125 -4.851562 0.578125 -5.21875 C 0.578125 -5.851562 0.820312 -6.335938 1.3125 -6.671875 C 1.800781 -7.015625 2.488281 -7.1875 3.375 -7.1875 C 4.226562 -7.1875 5.054688 -7.003906 5.859375 -6.640625 L 5.28125 -5.25 C 4.925781 -5.40625 4.59375 -5.53125 4.28125 -5.625 C 3.976562 -5.71875 3.664062 -5.765625 3.34375 -5.765625 C 2.78125 -5.765625 2.5 -5.613281 2.5 -5.3125 C 2.5 -5.132812 2.585938 -4.984375 2.765625 -4.859375 C 2.953125 -4.734375 3.351562 -4.546875 3.96875 -4.296875 C 4.519531 -4.066406 4.925781 -3.851562 5.1875 -3.65625 C 5.445312 -3.46875 5.632812 -3.25 5.75 -3 C 5.875 -2.75 5.9375 -2.445312 5.9375 -2.09375 Z M 5.9375 -2.09375 "/></g></g></g></svg>